<?xml version="1.0" standalone="no"?>
<!DOCTYPE svg PUBLIC "-//W3C//DTD SVG 20010904//EN"
 "http://www.w3.org/TR/2001/REC-SVG-20010904/DTD/svg10.dtd">
<svg version="1.0" xmlns="http://www.w3.org/2000/svg"
 width="170.000000pt" height="170.000000pt" viewBox="0 0 170.000000 170.000000"
 preserveAspectRatio="xMidYMid meet">
<style>
  .hf { fill: #3399CC }
  .circle { fill: #FFFFFF }
</style>
<!--circle cx="85" cy="85" r="84" class="circle" direction=""/-->
<g transform="translate(0.000000,154.000000) scale(0.050000,-0.050000)"
class="hf" stroke="#3399CC" stroke-width="100">
<path d="M2670 2536 c-22 -12 -46 -31 -52 -41 -14 -21 -293 -100 -518 -147
-458 -95 -567 -165 -563 -359 4 -197 194 -524 251 -432 6 9 -16 81 -49 159
-70 167 -65 217 31 302 56 49 257 142 307 142 8 0 -19 -70 -60 -155 -70 -146
-208 -534 -256 -720 l-23 -85 -254 0 c-380 1 -360 -28 -220 307 138 333 262
698 252 747 -14 77 -114 102 -159 40 -60 -81 -121 -106 -439 -175 -489 -106
-532 -141 -461 -372 49 -161 85 -218 128 -202 26 10 28 26 11 94 -38 147 28
199 426 342 121 43 238 88 261 100 50 27 53 41 -93 -361 -186 -510 -174 -488
-263 -501 -138 -19 -155 -55 -94 -213 36 -95 18 -173 -74 -324 l-42 -68 -43
63 c-60 86 -94 81 -94 -14 0 -48 -23 -121 -61 -192 -70 -130 -67 -156 21 -201
147 -76 230 32 472 613 84 202 57 190 445 196 l248 3 -14 -56 c-106 -413 -117
-671 -32 -715 99 -52 135 -41 150 44 8 41 49 164 92 272 44 108 74 205 68 215
-23 37 -50 15 -100 -84 -74 -146 -79 -112 -17 120 l55 202 108 0 c78 0 123
-11 158 -39 142 -112 338 66 216 196 -25 27 -371 36 -412 11 -102 -63 245 773
379 913 77 80 83 82 296 112 249 34 275 48 257 135 -29 141 -125 193 -239 128z"/>
</g>
</svg>
